# xmcd CD database file
#
# Track frame offsets:
#	150
#	17912
#	36826
#	56089
#	80999
#	102270
#	121146
#	142441
#	168432
#	190928
#	213676
#
# Disc length: 3129 seconds
#
# Revision: 0
# Processed by: cddbd v1.5.2PL0 Copyright (c) Steve Scherf et al.
# Submitted via: CDex 1.51
#
DISCID=a90c370b
DTITLE=Jane Monheit - Surrender
DYEAR=2007
DGENRE=Jazz
TTITLE0=if you went away
TTITLE1=surrender
TTITLE2=rio de maio
TTITLE3=like a lover
TTITLE4=só tinha de ser com você
TTITLE5=so many stars
TTITLE6=moon river
TTITLE7=overjoyed
TTITLE8=caminhos cruzados
TTITLE9=a time for love
TTITLE10=the summer knows (bonus track)
EXTD=YEAR: 2007
EXTT0=
EXTT1=
EXTT2=
EXTT3=
EXTT4=
EXTT5=
EXTT6=
EXTT7=
EXTT8=
EXTT9=
EXTT10=
PLAYORDER=
